<svg id="Layer_1" xmlns="http://www.w3.org/2000/svg" viewBox="0 0 216.108 244.891"><style>.st0{fill:#C62127;} .st1{fill:#FFFFFF;} .st2{fill:#B3B3B3;} .st3{fill:#676767;}</style><path class="st0" d="M143.606 38.72c1.04 2.637 3.925 3.234 6.46 3.044 3.57-.266-.464-6.756-3.244-6.69-2.03.05-4.102 1.4-3.216 3.645zm-40.626-2.675c-3.396-1.088-5.656.358-8.533 1.963-.956.533-3.617 6.03-1.68 6.057 1.4.02 1.085-2.18 1.747-2.95 1.06-1.227 2.982-2.02 4.594-1.965 2.07.07 4.54 1.402 6.213-.475 1.494-1.677-1.2-2.264-2.34-2.63zm-18.036 12.68c-2.153.553-3.04 3.048-.202 2.435 1.834-.396 3.006-3.154.202-2.435zm76.994-9.278c.364-.854.977-1.71 1.14-3.047.272-2.292 2.726-1.297 2.147-4.125-.665-3.246-1.365.532-1.912.467-1.794-.213.084-2.99.475-3.458 1.304-1.56 1.666-3.578 1.345-5.547-.292-1.8-1.05-3.697-2.12-5.183-1.48-2.06-2.55-.312-4.432-.442-1.925-.134-.933-2.168-1.067-3.274-.27-2.246-1.443-3.66-2.545-5.523-2.298-3.89-2.996-7.782-8.065-8.895-2.076-.455-5.45-.668-7.56.028-1.34.443 1.947 2.563 2.348 2.634 2.058.366 3.862-.238 5.646 1.227 2.733 2.237 5.297 6.84 5.765 10.323.267 1.97.32 3.95.27 5.934-.01.396-1.835.424-1.8.59-.238-1.145-.2-12.82-3.015-11.695-3.06 1.225 3.427 7.167-.632 7.92-1.816.338-3.652-.62-4.908-1.882-.79-.793-.922-1.878-1.537-2.772-.688-.997-2.142-1.625-3.09-2.33-4.277-3.18-8.355-4.922-13.758-4.876-2.49.02-9.59 1.275-9.116 4.887-2.475-.288-4.967-.436-7.46-.436-35.403 0-64.104 28.7-64.104 64.104 0 35.404 28.7 64.105 64.104 64.105 35.404 0 64.105-28.7 64.105-64.105-.002-2.57-.335-21.203-10.222-34.63zm-40.14-31.574c4.005-.574 6.44 1.38 10.21 2.293 2.34.567 4.472.922 5.887 3.086 1.264 1.932 4.04 4.912 4.34 7.16.584 4.396.816 7.05 5.463 4.338 1.566-.914 3.338.515 4.848 1.02.967.325.48 1.182-.042 1.604-1.323 1.067-3.57.358-5.05.14-1.15-.17-4.218-.173-3.2 1.922.92 1.89 3.262 1.047 4.868 1.185 1.69.147 3.51 1.717 3.8 3.458.158.95-1.216.36-1.63.563-.828.41.465 2.315.645 2.784.21.555.463 1.73 1.115 1.998.834.342 1.034-1.05 1.71-1.1 1.07-.076 1.645 2.398 2.304 2.98 1.635 1.438 3.77 4.356 4.453 6.438.48 1.47-3.616.04-4.073.002-3.252-.264-8.493 5.656-8.537 8.75-.013.814 2.016 5.18 2.94 3.706 1.454-2.32 2.386-1.175 4.973-.612.79.17 4.35 3.54 2.32 4.007-1.056.24-3.87-3.003-3.052.376.897 3.7 7.764 4.296 6.364 8.948-.934 3.103-3.565-2.254-4.422-2.94-1.508-1.204-4.295-2.467-6.164-2.885-1.81-.406-2.268 3.027-3.375 2.024-.95-.86-2.2-2.883-.656-3.82 2.197-1.334.953-4.09-.328-5.57-1.51-1.745-1.7-3.18-1.967-5.4-.06-.497-.304-6.313-.94-6.145-1.973.52-2.852 7.387-4.56 4.192-.812-1.52-.627-2.553.417-3.8 1.154-1.375.88-3.9-1.21-2.395-.75.54-2.74 1.486-3.015 2.375-.363 1.178.398 3.297-1.977 2.19-2.4-1.12 2.355-6.702-.934-7.108-1.45-.18-1.604 1.92-2.004 2.83-.72 1.637-1.076-1.887-.507-2.89.81-1.428 1.976-2.597 2.934-3.917 1.197-1.65-.224-2.658-1.5-1.346-.552.565-2.29 3.865-2.37.853-.012-.435 1.438-2.964 1.886-3.185.88-.436 5.115-.338 3.52-2.332-1.45-1.82.584-3.908 2.13-4.524 0 3.29 3.153 9.046 7.15 5.3 1.056-.988.73-3.524-1.163-2.58-1.973.983-3.88.635-2.684-1.96 1.975-4.284-3.04-1.06-3.295-2.352-.348-1.77 2.54-2.245 2.682-3.94.187-2.246-1.612-5.02-3.037-6.595-1.53-1.693-3.81-2.08-5.51-3.605-1.895-1.7-3.39-3.48-6.13-3.542-1.612-.035-3.847.99-5.356.22-2.01-1.024.977-2.09 1.727-2.2zm32.696 45.25c-1.433-.48 1.063-2.863 2.118-1.22.684 1.066-1.53 1.417-2.118 1.22zm-24.79-21.735c-.974-3.593 5.73-5.477 5.638-4.66.004-.04-2.775 1.633-2.98 1.94-.3.438-1.713 6.23-2.66 2.72zm-76.177 25.56c-.05.005-.095.014-.145.02 7.275-23.27 29-40.16 54.67-40.16 8.21 0 16.012 1.735 23.068 4.85-.874 1.13-2.535 2.256-3.147 3.04-1.67 2.134-1.89 4.4-1.724 7.013.188 2.996-2.036 5.288-1.1 8.28.692 2.217 1.18 4.19 1.516 6.484.382 2.607 1.908 3.047 3.923 4.27.92.56 1.103 1.658 1.95 2.242.742.513 1.712.41 2.547.602 2.776.63 1.406 3.31.28 4.786-1.526 2.005-4.124 6.578-6.995 6.496-2.25-.065-1.965-3.21-1.95-4.69.023-2.724-1.227-4.94-3.08-6.86-1.958-2.028-.53-4.214.165-6.508.873-2.863-.46-4.625-1.027-7.33-1.303-6.208-4.545-7.996-9.938-10.8-5.543-2.88-10.94-3.497-17.098-2.484-5.42.893-11.133 1.532-14.576 6.327-2.594 3.61-4.81 8.37-6.596 12.436-1.107 2.522-1.484 5.215-1.97 7.902-.394 2.2.6 7.58-1.483 9.065-1.705 1.214-4.565-1.036-5.97-1.8-2.758-1.504-8.147-3.45-11.323-3.18zM128.06 41.05c-1.264-.563-3.042-3.138-1.108-4.16 1.444-.767.61 3.952 1.107 4.16zm-8.705 20.285c-.517-.353 1.787-1.68 2.337-.42.367.84-1.993.654-2.337.42zm-11.664-21.46c-.867 1.096-2.376 1.57-3.69 1.834-3.794.76-5.018.558-6.96 4.186-.697 1.307-1.874 1.748-3.078 2.42-.765.425-2.354 1.278-2.028 2.392.697.277 1.438.04 2.09-.242.4-.174 1.527-1.186 1.914-1.126.975.155-.443 2.067-.867 2.444-1.054.94-2.408.262-3.58.82-1.22.578-2.317 1.398-3.584 1.88-2.618 1-4.026-1.504-6.544-1.22-1.997.228-2.852-.63-1.842-2.654.765-1.537 2.232-2.66 3.647-3.56.632-.402 4.358-2.182 1.94-2.9-4.615-1.366-8.88 5.5-9.813 9.08.238-1.235-.316-2.44-.138-3.68.577-4.062 4.523-7.537 7.968-9.24.967-.478 3.883-3.32 1.76-4.35-1.24-.6-2.795 1.31-3.848 1.677 2.01-3.957 4.453-6.447 8.988-6.948 1.298-.144 2.97-1.102 4.252-.865 1.505.275 1.232 2.225 3.258 1.914 1.77-.273.59-2.34 1.9-3.026 1.147-.602 2.677-.584 3.936-.533 2.027.083 10.567 2.01 10.64 4.605.102 3.513-5.287-2.23-6.015 2.362-.255 1.608.833 3.297-.304 4.727zM76.644 62.916c.635-.412 1.43-.378 1.598.46.15.737-.69 1.843-.93 2.527-.498 1.428.364 2.27-1.59 2.535-2.316.313-2.66-1.4-3.028-3.305-.316-1.648.107-3.543 1.207-4.827 1.164-1.36 2.645-.764 1.637.955-.565.965-1.155 1.793-1.052 2.976.87.335 1.513-.906 2.158-1.323zm14.727 39.117c-1.278.13-2.505.663-3.8.293-1.163-.332-2.127-.757-3.343-.33-3.48 1.224-.17 3.418 1.706 3.69 2.166.315 2.45 1.887 1.647 3.672-.734 1.634-1.976 3.866-3.528 4.813-.695.422-8.146 4.023-6.766 4.843 2.027 1.2 4.884-.18 6.605-1.278.6-.383 3.8-3.42 4.317-1.94.826 2.363-2.566 3.643-4.076 4.423-1.454.75-1.362 2.55-2.974 3.123-.79.282-1.456.29-2.068.138-3.64-2.138-7.02-4.663-10.087-7.523-.78-.837-2.472-3.046-3.36-5.455-.835-2.267-1.635-4.542-2.43-6.822-.718-2.06-2.474-4.656-1.738-6.9.756-2.3 2.78-3.873 3.997-5.9 1.658-2.772 3.462-5.475 5.687-7.834 3.53-3.738 8.368-3.992 12.627-6.315 1.816-.99 3.296-2.36 3.76-4.437.314-1.415.697-3.144 1.49-4.368.475-.733.707-.9 1.402-.248 1.705 1.598 3.182 5.142 6.113 4.994 2.4-.12-.984-7.57-.646-8.427.787-1.986 2.367-3.417 3.002-5.524.64-2.126.707-4.356 1-6.54.51-3.78 3.446-8.756 8.066-7.868 4.11.792 2.394 4.933.708 6.88-2.425 2.803-.89 8.375 3.538 6.684 1.848-.705 1.682-2.914 3.19-3.944 1.9-1.3 4.115-.88 5.56.892 1.75 2.146-1.71 2.673-3.035 3.266-3.016 1.348-1.052 2.836-1.352 5.11-2.845-1.4-2.52 5.423-1.437 6.446 1.037.98 2.833-1.664 3.675-1.984 1.622-.615 1.707 3.21 3.498 2.324-.5 3.496-5.126 3.303-7.75 3.473-3.02.193-3.833 1.28-5.966 3.043-.65.537-2.96-.826-3.743-.88-1.872-.132-.21 3.046-.768 4.066-.7 1.282-3.932 2.7-2.27 4.21 1.65 1.5 4.486 1.743 6.59 1.526 2.668-.273 3.452.173 5.568 1.214 1.646.81.503-1.93.275-2.46-.697-1.633-.367-2.733 1.072-3.87 4.34-3.44 9.113-5.288 13.016-9.445 2.62-2.79 4.673-6.026 6.797-9.19.57-.85 4.554-7.793 5.287-3.922.34 1.79-.063 3.75.026 5.57.082 1.632.02 3.993-1.608 4.924-2.157 1.233-1.474 3.773-2.532 5.9-2.34 4.7-6.82 8.012-9.065 12.73-1.794 3.773-7.17 3.515-7.53 8.016-.216 2.723-4.148 1.748-5.882 1.784-2.842.058-5.037 2.108-7.314 3.526-4.428 2.76-10.24 1.324-15.15 1.83zm16.683 29.317c-.47 0-.932-.022-1.4-.036.45-2.51 2.2-4.46 2.668-7.04.874-4.83.562-8.927-.067-13.684-.61-4.613-.572-6.12 4.52-5.776 6.845.463 12.224-3.018 18.773-3.57 6.005-.506 8.122-4.805 12.09-8.59 1.584-1.51 3.554-2.526 5.136-4.025 2.184-2.067 1.558-4.056 1.628-6.738.056-2.155 1.64-2.792 2.58-4.45.594-1.05.073-3.765 1.476-4.184 1.453-.435 1.05 2.566 1.292 3.248.682 1.905 2.953 2.11 4.68 1.926 1.22-.13 2.574-.502 3.803-1.11-1.683 30.12-26.634 54.03-57.177 54.03z"/><path class="st1" d="M6.56 171.956l-2.87 8.692H0l9.43-27.634h4.265l9.43 27.634h-3.812l-2.952-8.692h-9.8zm9.102-2.788l-2.747-7.954c-.614-1.804-1.024-3.444-1.435-5.043h-.082c-.41 1.6-.82 3.322-1.395 5.003l-2.705 7.995h8.364zM29.028 153.014h3.567v13.325h.123c.737-1.067 1.476-2.05 2.172-2.953l8.447-10.373h4.428L37.762 164.74l10.783 15.908H44.32l-9.06-13.57-2.665 3.033v10.538h-3.567v-27.634zM57.973 171.956l-2.87 8.692h-3.69l9.432-27.634h4.264l9.43 27.634h-3.814l-2.952-8.692h-9.8zm9.102-2.788l-2.747-7.954c-.615-1.804-1.025-3.444-1.436-5.043h-.08c-.41 1.6-.82 3.322-1.395 5.003l-2.707 7.995h8.365zM80.44 153.424c2.174-.37 4.757-.615 7.586-.615 5.125 0 8.774 1.23 11.192 3.443 2.502 2.255 3.937 5.453 3.937 9.922 0 4.51-1.435 8.2-3.978 10.742-2.623 2.583-6.887 3.977-12.258 3.977-2.585 0-4.676-.123-6.48-.328v-27.142zm3.568 24.436c.902.123 2.215.164 3.608.164 7.667 0 11.767-4.264 11.767-11.726.04-6.52-3.648-10.66-11.192-10.66-1.844 0-3.238.164-4.182.37v21.852zM123.86 167.692h-10.702v9.963h11.973v2.993h-15.58v-27.634h14.966v2.993H113.16v8.733h10.7v2.952zM154.897 168.512c-.205-3.854-.45-8.528-.45-11.93h-.083c-.984 3.197-2.092 6.682-3.485 10.495L146 180.484h-2.706l-4.51-13.16c-1.313-3.937-2.38-7.463-3.157-10.743h-.082c-.082 3.445-.287 8.037-.533 12.22l-.737 11.848h-3.404l1.93-27.634h4.55l4.715 13.366c1.148 3.403 2.05 6.437 2.79 9.307h.08c.738-2.788 1.722-5.822 2.952-9.307l4.92-13.366h4.55l1.724 27.634h-3.525l-.658-12.136zM169.983 153.014v27.634h-3.607v-27.634h3.607zM183.677 153.014h3.608v18.49c0 7.34-3.608 9.595-8.364 9.595-1.352 0-2.95-.288-3.812-.657l.492-2.91c.738.286 1.805.532 3.034.532 3.198 0 5.043-1.435 5.043-6.847v-18.204zM199.543 171.956l-2.87 8.692h-3.69l9.432-27.634h4.264l9.43 27.634h-3.814l-2.952-8.692h-9.8zm9.103-2.788l-2.747-7.954c-.616-1.804-1.026-3.444-1.437-5.043h-.08c-.41 1.6-.82 3.322-1.395 5.003l-2.707 7.995h8.366z"/><path class="st2" d="M3.608 193.014v16.4c0 6.15 2.748 8.774 6.437 8.774 4.06 0 6.725-2.706 6.725-8.774v-16.4h3.607v16.154c0 8.487-4.47 11.93-10.455 11.93C4.264 221.1 0 217.902 0 209.292v-16.276h3.608zM49.994 208.512c-.205-3.854-.45-8.528-.45-11.93h-.083c-.983 3.197-2.09 6.682-3.483 10.495l-4.88 13.407h-2.706l-4.51-13.16c-1.312-3.937-2.377-7.463-3.155-10.743h-.082c-.082 3.445-.287 8.037-.533 12.22l-.738 11.848H25.97l1.926-27.634h4.55l4.717 13.366c1.147 3.403 2.05 6.437 2.788 9.307h.083c.738-2.788 1.722-5.822 2.95-9.307l4.92-13.366h4.553l1.722 27.634H50.65l-.656-12.136zM76.076 207.692h-10.7v9.963h11.972v2.993h-15.58v-27.634h14.965v2.993H65.375v8.733h10.7v2.952zM91.344 196.048h-8.406v-3.034h20.46v3.034H94.95v24.6h-3.607v-24.6zM109.988 220.648v-27.634h3.936l8.815 13.98c2.008 3.24 3.647 6.15 4.92 8.98l.122-.04c-.328-3.69-.41-7.052-.41-11.357v-11.562h3.362v27.634h-3.608l-8.774-14.023c-1.927-3.075-3.77-6.232-5.125-9.225l-.123.04c.205 3.486.246 6.807.246 11.4v11.807h-3.362zM162.582 206.544c0 9.47-5.78 14.555-12.834 14.555-7.34 0-12.423-5.7-12.423-14.065 0-8.774 5.412-14.514 12.792-14.514 7.585.002 12.465 5.783 12.465 14.024zm-21.484.41c0 5.945 3.197 11.234 8.856 11.234 5.658 0 8.856-5.207 8.856-11.48 0-5.535-2.87-11.275-8.815-11.275-5.946 0-8.897 5.494-8.897 11.52zM167.115 216.302c1.6 1.025 3.895 1.804 6.355 1.804 3.648 0 5.78-1.927 5.78-4.715 0-2.54-1.476-4.058-5.206-5.452-4.51-1.64-7.3-4.018-7.3-7.872 0-4.305 3.568-7.503 8.94-7.503 2.788 0 4.88.656 6.067 1.353l-.982 2.91c-.86-.532-2.706-1.31-5.207-1.31-3.772 0-5.207 2.254-5.207 4.14 0 2.583 1.682 3.854 5.494 5.33 4.675 1.804 7.012 4.06 7.012 8.118 0 4.264-3.117 7.995-9.636 7.995-2.666 0-5.576-.82-7.053-1.805l.945-2.993zM195.856 196.048h-8.405v-3.034h20.46v3.034h-8.446v24.6h-3.607v-24.6zM216.108 193.014v27.634H212.5v-27.634h3.608z"/><g><path class="st3" d="M58.813 232.737c.684-.162 1.783-.27 2.863-.27 1.566 0 2.574.27 3.313.882.63.467 1.024 1.187 1.024 2.142 0 1.188-.79 2.214-2.053 2.665v.054c1.153.27 2.505 1.225 2.505 3.026 0 1.044-.414 1.836-1.045 2.43-.828.775-2.197 1.135-4.178 1.135-1.08 0-1.908-.07-2.43-.143v-11.92zm1.566 4.97h1.42c1.64 0 2.612-.883 2.612-2.053 0-1.405-1.063-1.98-2.646-1.98-.72 0-1.135.053-1.387.107v3.926zm0 5.797c.323.054.755.072 1.313.072 1.62 0 3.115-.594 3.115-2.36 0-1.637-1.424-2.34-3.133-2.34h-1.297v4.628zM80.234 239.003h-4.7v4.375h5.26v1.314H73.95v-12.136h6.573v1.314h-4.988v3.835h4.7v1.298zM92.96 244.89c-3.224 0-5.456-2.484-5.456-6.157 0-3.853 2.377-6.374 5.617-6.374 3.333 0 5.476 2.537 5.476 6.14 0 4.158-2.54 6.39-5.617 6.39h-.02zm.07-1.278c2.485 0 3.892-2.287 3.892-5.042 0-2.413-1.262-4.933-3.87-4.933-2.612 0-3.91 2.43-3.91 5.06 0 2.556 1.405 4.915 3.872 4.915h.017zM115.28 244.152c-.702.27-2.106.666-3.745.666-1.836 0-3.348-.468-4.537-1.602-1.043-1.008-1.69-2.63-1.69-4.52 0-3.618 2.5-6.265 6.57-6.265 1.405 0 2.52.307 3.042.56l-.395 1.277c-.648-.306-1.46-.522-2.684-.522-2.952 0-4.878 1.836-4.878 4.88 0 3.078 1.836 4.896 4.682 4.896 1.025 0 1.73-.143 2.088-.323v-3.62h-2.45v-1.26h4v5.835zM123.053 232.737c.793-.162 1.945-.27 3.008-.27 1.675 0 2.774.324 3.53 1.008.594.522.953 1.35.953 2.305 0 1.584-1.025 2.647-2.285 3.08v.053c.918.324 1.477 1.188 1.78 2.45.397 1.69.687 2.862.92 3.33h-1.62c-.2-.342-.47-1.386-.793-2.9-.36-1.673-1.025-2.304-2.45-2.358h-1.476v5.258h-1.567v-11.956zm1.566 5.51h1.603c1.674 0 2.736-.92 2.736-2.306 0-1.565-1.136-2.25-2.792-2.25-.756 0-1.277.072-1.55.144v4.412zM140.19 240.875l-1.26 3.817h-1.62l4.122-12.136h1.89l4.144 12.136h-1.676l-1.295-3.817h-4.305zm3.98-1.224l-1.207-3.492c-.252-.792-.432-1.512-.613-2.214h-.053c-.162.702-.36 1.458-.594 2.196l-1.19 3.51h3.657zM154.625 232.72c.973-.145 2.107-.253 3.35-.253 2.25 0 3.854.504 4.916 1.494 1.1.992 1.73 2.414 1.73 4.377 0 1.98-.632 3.6-1.75 4.717-1.15 1.135-3.022 1.747-5.382 1.747-1.135 0-2.053-.035-2.863-.143V232.72zm1.584 10.748c.395.072.972.072 1.585.072 3.348.018 5.166-1.873 5.166-5.15.02-2.898-1.6-4.68-4.913-4.68-.81 0-1.424.07-1.838.16v9.598z"/></g></svg>