<?xml version="1.0" encoding="utf-8"?>
<!-- Generator: Adobe Illustrator 19.1.0, SVG Export Plug-In . SVG Version: 6.00 Build 0)  -->
<svg version="1.1" id="Layer_1" xmlns="http://www.w3.org/2000/svg" xmlns:xlink="http://www.w3.org/1999/xlink" x="0px" y="0px"
	 viewBox="0 0 216.108 244.891" style="enable-background:new 0 0 216.108 244.891;" xml:space="preserve">
<style type="text/css">
	.st0{fill:#C62127;}
	.st1{fill:#FFFFFF;}
	.st2{fill:#B3B3B3;}
	.st3{fill:#676767;}
</style>
<path class="st0" d="M143.606,38.719c1.041,2.638,3.925,3.235,6.46,3.045c3.571-0.266-0.464-6.756-3.244-6.689
	C144.793,35.123,142.72,36.473,143.606,38.719z M102.98,36.045c-3.396-1.088-5.656,0.358-8.533,1.963
	c-0.956,0.533-3.617,6.029-1.679,6.057c1.4,0.021,1.084-2.181,1.746-2.95c1.059-1.227,2.982-2.021,4.594-1.965
	c2.069,0.071,4.541,1.402,6.213-0.475C106.814,36.998,104.121,36.411,102.98,36.045z M84.944,48.725
	c-2.153,0.553-3.04,3.048-0.202,2.435C86.576,50.764,87.748,48.006,84.944,48.725z M161.938,39.447
	c0.364-0.854,0.977-1.71,1.139-3.047c0.273-2.292,2.727-1.297,2.148-4.125c-0.665-3.246-1.365,0.532-1.912,0.467
	c-1.794-0.213,0.084-2.99,0.475-3.458c1.304-1.559,1.666-3.578,1.345-5.547c-0.292-1.799-1.05-3.697-2.119-5.183
	c-1.48-2.06-2.552-0.312-4.433-0.442c-1.926-0.134-0.934-2.168-1.068-3.274c-0.271-2.246-1.443-3.659-2.545-5.523
	c-2.298-3.891-2.996-7.782-8.065-8.895c-2.076-0.455-5.45-0.668-7.56,0.028c-1.339,0.443,1.947,2.563,2.348,2.634
	c2.057,0.366,3.861-0.238,5.645,1.227c2.733,2.238,5.297,6.841,5.765,10.324c0.266,1.97,0.32,3.949,0.27,5.934
	c-0.01,0.396-1.836,0.424-1.801,0.59c-0.238-1.145-0.201-12.821-3.015-11.695c-3.06,1.225,3.427,7.167-0.632,7.92
	c-1.816,0.338-3.652-0.619-4.908-1.882c-0.789-0.793-0.922-1.878-1.537-2.772c-0.688-0.997-2.142-1.625-3.09-2.329
	c-4.277-3.18-8.355-4.923-13.758-4.877c-2.491,0.02-9.589,1.275-9.116,4.887c-2.475-0.287-4.967-0.435-7.46-0.435
	c-35.403,0-64.104,28.7-64.104,64.104c0,35.404,28.7,64.105,64.104,64.105c35.404,0,64.105-28.701,64.105-64.105
	C172.158,71.507,171.825,52.875,161.938,39.447z M121.797,7.873c4.006-0.574,6.441,1.379,10.211,2.293
	c2.339,0.567,4.472,0.922,5.887,3.086c1.264,1.932,4.041,4.912,4.34,7.161c0.584,4.395,0.816,7.05,5.463,4.337
	c1.566-0.914,3.338,0.515,4.848,1.021c0.967,0.324,0.481,1.181-0.042,1.603c-1.323,1.067-3.571,0.358-5.049,0.141
	c-1.151-0.17-4.219-0.174-3.2,1.921c0.919,1.89,3.261,1.047,4.867,1.185c1.689,0.146,3.51,1.716,3.8,3.457
	c0.158,0.949-1.216,0.36-1.63,0.563c-0.828,0.408,0.465,2.314,0.645,2.783c0.211,0.555,0.463,1.73,1.115,1.998
	c0.834,0.342,1.034-1.051,1.709-1.1c1.07-0.076,1.646,2.398,2.305,2.979c1.635,1.439,3.77,4.357,4.453,6.439
	c0.482,1.469-3.615,0.039-4.072,0.002c-3.252-0.264-8.493,5.656-8.537,8.751c-0.013,0.813,2.016,5.178,2.939,3.705
	c1.455-2.321,2.387-1.175,4.974-0.612c0.79,0.17,4.351,3.539,2.319,4.007c-1.055,0.24-3.869-3.003-3.051,0.376
	c0.896,3.701,7.763,4.297,6.363,8.949c-0.934,3.103-3.565-2.254-4.422-2.939c-1.508-1.205-4.295-2.468-6.164-2.886
	c-1.809-0.406-2.268,3.027-3.375,2.024c-0.95-0.86-2.199-2.883-0.656-3.819c2.197-1.335,0.953-4.09-0.328-5.572
	c-1.508-1.744-1.699-3.178-1.966-5.399c-0.059-0.497-0.304-6.313-0.94-6.145c-1.973,0.519-2.852,7.387-4.561,4.192
	c-0.811-1.519-0.626-2.553,0.418-3.799c1.154-1.376,0.879-3.9-1.21-2.396c-0.75,0.542-2.739,1.487-3.015,2.376
	c-0.363,1.178,0.398,3.297-1.977,2.189c-2.4-1.119,2.355-6.701-0.934-7.107c-1.451-0.179-1.604,1.921-2.004,2.829
	c-0.721,1.638-1.076-1.886-0.507-2.89c0.811-1.427,1.976-2.596,2.934-3.916c1.197-1.65-0.224-2.658-1.501-1.346
	c-0.551,0.565-2.29,3.865-2.369,0.853c-0.012-0.435,1.438-2.964,1.886-3.185c0.88-0.436,5.115-0.338,3.521-2.332
	c-1.452-1.819,0.583-3.908,2.128-4.524c0,3.289,3.154,9.046,7.152,5.299c1.055-0.987,0.729-3.523-1.164-2.579
	c-1.973,0.983-3.881,0.635-2.684-1.961c1.975-4.283-3.04-1.06-3.295-2.351c-0.349-1.77,2.539-2.245,2.681-3.94
	c0.187-2.246-1.612-5.021-3.037-6.595c-1.531-1.692-3.811-2.08-5.51-3.604c-1.895-1.7-3.391-3.479-6.129-3.542
	c-1.613-0.035-3.848,0.99-5.357,0.22C118.061,9.049,121.047,7.982,121.797,7.873z M154.494,53.123
	c-1.433-0.48,1.063-2.863,2.118-1.219C157.296,52.969,155.081,53.32,154.494,53.123z M129.703,31.388
	c-0.973-3.593,5.732-5.477,5.639-4.661c0.004-0.04-2.775,1.634-2.981,1.94C132.063,29.106,130.649,34.899,129.703,31.388z
	 M53.527,56.948c-0.051,0.005-0.095,0.014-0.145,0.02c7.275-23.271,29-40.161,54.67-40.161c8.211,0,16.012,1.736,23.068,4.851
	c-0.874,1.131-2.535,2.256-3.147,3.039c-1.669,2.135-1.89,4.402-1.724,7.014c0.189,2.995-2.035,5.287-1.099,8.278
	c0.692,2.218,1.18,4.19,1.516,6.485c0.382,2.607,1.908,3.047,3.923,4.27c0.92,0.559,1.104,1.658,1.951,2.242
	c0.742,0.513,1.712,0.411,2.547,0.602c2.776,0.631,1.406,3.309,0.281,4.786c-1.527,2.005-4.125,6.578-6.996,6.496
	c-2.25-0.065-1.965-3.21-1.951-4.69c0.024-2.724-1.226-4.939-3.08-6.86c-1.957-2.028-0.53-4.214,0.166-6.508
	c0.873-2.863-0.459-4.625-1.027-7.331c-1.303-6.207-4.545-7.995-9.938-10.798c-5.543-2.882-10.941-3.498-17.098-2.485
	c-5.42,0.893-11.133,1.532-14.576,6.327c-2.594,3.61-4.811,8.369-6.596,12.436c-1.107,2.521-1.484,5.214-1.969,7.901
	c-0.395,2.201,0.6,7.58-1.484,9.065c-1.704,1.214-4.564-1.036-5.969-1.8C62.092,58.623,56.703,56.676,53.527,56.948z
	 M128.059,41.051c-1.263-0.564-3.041-3.139-1.107-4.162C128.396,36.123,127.561,40.842,128.059,41.051z M119.355,61.335
	c-0.517-0.353,1.787-1.681,2.337-0.421C122.059,61.756,119.699,61.569,119.355,61.335z M107.691,39.874
	c-0.868,1.097-2.377,1.57-3.691,1.835c-3.794,0.762-5.018,0.559-6.959,4.187c-0.698,1.307-1.875,1.748-3.079,2.419
	c-0.765,0.426-2.354,1.279-2.028,2.393c0.697,0.277,1.438,0.041,2.09-0.242c0.399-0.174,1.527-1.186,1.914-1.126
	c0.975,0.155-0.443,2.067-0.867,2.444c-1.055,0.94-2.409,0.262-3.582,0.819c-1.219,0.579-2.316,1.399-3.583,1.882
	c-2.618,0.998-4.026-1.505-6.544-1.221c-1.997,0.228-2.852-0.629-1.842-2.654c0.765-1.537,2.232-2.66,3.647-3.561
	c0.632-0.401,4.358-2.181,1.939-2.898c-4.614-1.367-8.878,5.5-9.812,9.078c0.238-1.234-0.316-2.44-0.138-3.68
	c0.577-4.061,4.523-7.536,7.968-9.238c0.967-0.479,3.883-3.322,1.759-4.351c-1.239-0.601-2.794,1.31-3.847,1.677
	c2.009-3.957,4.453-6.447,8.988-6.948c1.298-0.143,2.969-1.101,4.252-0.864c1.505,0.275,1.232,2.225,3.258,1.914
	c1.771-0.272,0.589-2.338,1.9-3.025c1.147-0.602,2.677-0.584,3.936-0.533c2.027,0.082,10.567,2.009,10.641,4.604
	c0.101,3.513-5.288-2.229-6.016,2.362C107.74,36.755,108.828,38.444,107.691,39.874z M76.643,62.917
	c0.635-0.412,1.43-0.378,1.598,0.46c0.148,0.737-0.691,1.843-0.93,2.527c-0.499,1.428,0.363,2.271-1.59,2.535
	c-2.317,0.314-2.662-1.4-3.029-3.304c-0.316-1.648,0.107-3.543,1.207-4.827c1.165-1.36,2.646-0.764,1.638,0.955
	c-0.565,0.965-1.155,1.793-1.052,2.976C75.354,64.575,75.998,63.334,76.643,62.917z M91.37,102.034
	c-1.278,0.131-2.505,0.663-3.8,0.293c-1.163-0.332-2.127-0.757-3.343-0.329c-3.481,1.223-0.171,3.417,1.706,3.689
	c2.166,0.315,2.449,1.887,1.647,3.672c-0.734,1.635-1.976,3.867-3.528,4.814c-0.695,0.422-8.146,4.023-6.766,4.843
	c2.027,1.199,4.884-0.179,6.605-1.278c0.6-0.383,3.799-3.42,4.316-1.94c0.826,2.363-2.566,3.643-4.076,4.423
	c-1.455,0.75-1.363,2.549-2.975,3.122c-0.79,0.282-1.456,0.289-2.068,0.138c-3.639-2.139-7.02-4.664-10.087-7.524
	c-0.782-0.837-2.473-3.046-3.362-5.455c-0.834-2.267-1.634-4.542-2.429-6.822c-0.718-2.06-2.474-4.656-1.738-6.899
	c0.756-2.3,2.78-3.874,3.997-5.901c1.659-2.772,3.463-5.475,5.688-7.834c3.531-3.738,8.368-3.992,12.627-6.315
	c1.816-0.99,3.296-2.362,3.759-4.438c0.315-1.415,0.698-3.144,1.492-4.368c0.474-0.733,0.706-0.9,1.401-0.248
	c1.705,1.598,3.182,5.142,6.113,4.994c2.4-0.12-0.983-7.57-0.645-8.428c0.787-1.986,2.367-3.417,3.002-5.524
	c0.641-2.125,0.707-4.355,1.001-6.539c0.509-3.781,3.445-8.756,8.065-7.868c4.111,0.792,2.394,4.933,0.708,6.88
	c-2.425,2.803-0.889,8.375,3.538,6.684c1.848-0.705,1.682-2.914,3.189-3.944c1.902-1.3,4.116-0.88,5.562,0.892
	c1.749,2.146-1.711,2.673-3.036,3.266c-3.016,1.348-1.052,2.836-1.352,5.111c-2.846-1.4-2.521,5.422-1.438,6.445
	c1.037,0.979,2.833-1.664,3.675-1.984c1.622-0.615,1.707,3.211,3.498,2.324c-0.499,3.496-5.126,3.303-7.749,3.473
	c-3.021,0.194-3.834,1.28-5.967,3.044c-0.65,0.537-2.961-0.826-3.743-0.881c-1.872-0.131-0.21,3.047-0.768,4.067
	c-0.699,1.283-3.931,2.7-2.269,4.21c1.65,1.5,4.486,1.744,6.59,1.527c2.668-0.273,3.452,0.173,5.568,1.214
	c1.646,0.809,0.503-1.929,0.275-2.461c-0.697-1.632-0.367-2.732,1.072-3.87c4.34-3.438,9.113-5.287,13.016-9.444
	c2.619-2.789,4.672-6.026,6.796-9.19c0.571-0.851,4.554-7.793,5.287-3.922c0.339,1.79-0.063,3.75,0.026,5.569
	c0.082,1.633,0.021,3.994-1.608,4.925c-2.157,1.233-1.474,3.773-2.532,5.9c-2.34,4.699-6.82,8.012-9.065,12.73
	c-1.794,3.773-7.17,3.515-7.529,8.016c-0.217,2.723-4.149,1.748-5.883,1.784c-2.842,0.058-5.037,2.108-7.314,3.526
	C102.092,102.964,96.281,101.527,91.37,102.034z M108.053,131.351c-0.469,0-0.932-0.023-1.4-0.037
	c0.451-2.51,2.201-4.46,2.668-7.041c0.873-4.83,0.561-8.926-0.068-13.683c-0.609-4.613-0.572-6.12,4.521-5.776
	c6.844,0.463,12.223-3.018,18.772-3.57c6.005-0.506,8.122-4.805,12.091-8.59c1.583-1.51,3.553-2.526,5.135-4.025
	c2.184-2.066,1.558-4.055,1.628-6.737c0.056-2.155,1.64-2.792,2.579-4.451c0.595-1.049,0.074-3.764,1.477-4.183
	c1.453-0.435,1.049,2.566,1.292,3.248c0.682,1.905,2.953,2.11,4.681,1.926c1.22-0.13,2.573-0.502,3.802-1.109
	C163.547,107.443,138.596,131.351,108.053,131.351z"/>
<g>
	<path class="st1" d="M6.561,171.956l-2.871,8.692H0l9.43-27.634h4.265l9.431,27.634h-3.813l-2.952-8.692H6.561z M15.662,169.168
		l-2.747-7.954c-0.614-1.804-1.024-3.444-1.435-5.043h-0.082c-0.41,1.599-0.82,3.321-1.395,5.002l-2.705,7.995H15.662z"/>
	<path class="st1" d="M29.028,153.014h3.567v13.325h0.123c0.737-1.066,1.476-2.05,2.172-2.952l8.447-10.373h4.428L37.762,164.74
		l10.783,15.908h-4.224l-9.062-13.571l-2.664,3.034v10.537h-3.567V153.014z"/>
	<path class="st1" d="M57.973,171.956l-2.869,8.692h-3.69l9.431-27.634h4.264l9.43,27.634h-3.813l-2.952-8.692H57.973z
		 M67.075,169.168l-2.747-7.954c-0.615-1.804-1.025-3.444-1.436-5.043h-0.081c-0.41,1.599-0.82,3.321-1.394,5.002l-2.707,7.995
		H67.075z"/>
	<path class="st1" d="M80.441,153.424c2.173-0.369,4.756-0.615,7.585-0.615c5.125,0,8.774,1.23,11.192,3.444
		c2.502,2.255,3.937,5.453,3.937,9.922c0,4.51-1.435,8.2-3.978,10.742c-2.623,2.583-6.887,3.977-12.258,3.977
		c-2.584,0-4.675-0.123-6.479-0.328V153.424z M84.008,177.86c0.902,0.123,2.215,0.164,3.608,0.164
		c7.667,0,11.767-4.264,11.767-11.726c0.041-6.519-3.648-10.66-11.192-10.66c-1.845,0-3.239,0.164-4.183,0.369V177.86z"/>
	<path class="st1" d="M123.859,167.692h-10.701v9.963h11.973v2.993h-15.58v-27.634h14.965v2.993h-11.357v8.733h10.701V167.692z"/>
	<path class="st1" d="M154.897,168.512c-0.205-3.854-0.451-8.528-0.451-11.931h-0.082c-0.984,3.198-2.092,6.683-3.485,10.496
		l-4.879,13.407h-2.706l-4.51-13.161c-1.313-3.936-2.379-7.462-3.157-10.742h-0.082c-0.082,3.444-0.287,8.036-0.533,12.218
		l-0.737,11.849h-3.404l1.928-27.634h4.551l4.715,13.366c1.148,3.403,2.051,6.437,2.789,9.307h0.081
		c0.738-2.788,1.722-5.822,2.952-9.307l4.92-13.366h4.551l1.723,27.634h-3.526L154.897,168.512z"/>
	<path class="st1" d="M169.983,153.014v27.634h-3.607v-27.634H169.983z"/>
	<path class="st1" d="M183.677,153.014h3.608v18.491c0,7.339-3.608,9.594-8.364,9.594c-1.353,0-2.952-0.287-3.813-0.656l0.492-2.911
		c0.738,0.287,1.805,0.533,3.034,0.533c3.198,0,5.043-1.435,5.043-6.847V153.014z"/>
	<path class="st1" d="M199.543,171.956l-2.869,8.692h-3.69l9.431-27.634h4.264l9.43,27.634h-3.813l-2.952-8.692H199.543z
		 M208.646,169.168l-2.747-7.954c-0.615-1.804-1.025-3.444-1.436-5.043h-0.081c-0.41,1.599-0.82,3.321-1.394,5.002l-2.707,7.995
		H208.646z"/>
	<path class="st2" d="M3.608,193.014v16.4c0,6.15,2.748,8.774,6.437,8.774c4.059,0,6.725-2.706,6.725-8.774v-16.4h3.607v16.154
		c0,8.487-4.469,11.931-10.455,11.931C4.264,221.1,0,217.901,0,209.291v-16.277H3.608z"/>
	<path class="st2" d="M49.994,208.512c-0.205-3.854-0.451-8.528-0.451-11.931h-0.082c-0.984,3.198-2.091,6.683-3.484,10.496
		l-4.879,13.407h-2.707l-4.51-13.161c-1.313-3.936-2.378-7.462-3.156-10.742h-0.082c-0.082,3.444-0.287,8.036-0.533,12.218
		l-0.738,11.849h-3.403l1.927-27.634h4.551l4.716,13.366c1.147,3.403,2.05,6.437,2.788,9.307h0.082
		c0.738-2.788,1.722-5.822,2.951-9.307l4.92-13.366h4.552l1.722,27.634H50.65L49.994,208.512z"/>
	<path class="st2" d="M76.076,207.692H65.375v9.963h11.973v2.993h-15.58v-27.634h14.965v2.993H65.375v8.733h10.701V207.692z"/>
	<path class="st2" d="M91.344,196.048h-8.406v-3.034h20.459v3.034h-8.445v24.6h-3.607V196.048z"/>
	<path class="st2" d="M109.988,220.648v-27.634h3.936l8.815,13.981c2.009,3.239,3.648,6.15,4.92,8.98l0.123-0.041
		c-0.328-3.691-0.41-7.052-0.41-11.357v-11.562h3.362v27.634h-3.608l-8.774-14.022c-1.927-3.075-3.771-6.232-5.125-9.225
		l-0.123,0.041c0.205,3.485,0.246,6.806,0.246,11.398v11.808H109.988z"/>
	<path class="st2" d="M162.582,206.544c0,9.471-5.781,14.555-12.834,14.555c-7.339,0-12.423-5.699-12.423-14.064
		c0-8.774,5.412-14.514,12.792-14.514C157.702,192.522,162.582,198.303,162.582,206.544z M141.098,206.954
		c0,5.945,3.197,11.234,8.856,11.234c5.658,0,8.856-5.207,8.856-11.48c0-5.535-2.87-11.275-8.815-11.275
		C144.049,195.433,141.098,200.927,141.098,206.954z"/>
	<path class="st2" d="M167.115,216.302c1.6,1.025,3.895,1.804,6.355,1.804c3.648,0,5.781-1.927,5.781-4.715
		c0-2.542-1.477-4.059-5.207-5.453c-4.511-1.64-7.299-4.018-7.299-7.872c0-4.305,3.567-7.503,8.938-7.503
		c2.789,0,4.88,0.656,6.068,1.353l-0.983,2.911c-0.861-0.533-2.706-1.312-5.207-1.312c-3.773,0-5.208,2.255-5.208,4.141
		c0,2.583,1.682,3.854,5.494,5.33c4.675,1.804,7.012,4.059,7.012,8.118c0,4.264-3.116,7.995-9.635,7.995
		c-2.666,0-5.576-0.82-7.053-1.804L167.115,216.302z"/>
	<path class="st2" d="M195.856,196.048h-8.405v-3.034h20.459v3.034h-8.446v24.6h-3.607V196.048z"/>
	<path class="st2" d="M216.108,193.014v27.634H212.5v-27.634H216.108z"/>
</g>
<g>
	<path class="st3" d="M58.813,232.737c0.684-0.162,1.783-0.27,2.863-0.27c1.566,0,2.574,0.27,3.313,0.882
		c0.631,0.468,1.025,1.188,1.025,2.143c0,1.188-0.791,2.214-2.053,2.665v0.054c1.152,0.27,2.504,1.224,2.504,3.025
		c0,1.044-0.414,1.836-1.045,2.431c-0.828,0.774-2.197,1.134-4.178,1.134c-1.08,0-1.908-0.072-2.43-0.144V232.737z M60.379,237.706
		h1.422c1.639,0,2.611-0.882,2.611-2.052c0-1.405-1.063-1.981-2.646-1.981c-0.721,0-1.135,0.054-1.387,0.108V237.706z
		 M60.379,243.504c0.324,0.054,0.756,0.072,1.314,0.072c1.621,0,3.115-0.594,3.115-2.359c0-1.638-1.424-2.341-3.133-2.341h-1.297
		V243.504z"/>
	<path class="st3" d="M80.234,239.003h-4.699v4.375h5.258v1.314h-6.842v-12.136h6.572v1.314h-4.988v3.835h4.699V239.003z"/>
	<path class="st3" d="M92.959,244.891c-3.223,0-5.455-2.485-5.455-6.158c0-3.853,2.377-6.374,5.617-6.374
		c3.332,0,5.475,2.538,5.475,6.14c0,4.159-2.539,6.392-5.617,6.392H92.959z M93.031,243.612c2.484,0,3.891-2.287,3.891-5.042
		c0-2.413-1.262-4.933-3.871-4.933c-2.611,0-3.908,2.431-3.908,5.059c0,2.557,1.404,4.916,3.871,4.916H93.031z"/>
	<path class="st3" d="M115.281,244.152c-0.703,0.27-2.107,0.666-3.746,0.666c-1.836,0-3.348-0.468-4.537-1.602
		c-1.043-1.008-1.691-2.629-1.691-4.519c0-3.619,2.502-6.266,6.57-6.266c1.406,0,2.521,0.306,3.043,0.558l-0.395,1.278
		c-0.648-0.306-1.459-0.522-2.684-0.522c-2.953,0-4.879,1.836-4.879,4.879c0,3.079,1.836,4.897,4.682,4.897
		c1.025,0,1.729-0.144,2.088-0.324v-3.619h-2.449v-1.261h3.998V244.152z"/>
	<path class="st3" d="M123.053,232.737c0.793-0.162,1.945-0.27,3.008-0.27c1.674,0,2.773,0.324,3.529,1.008
		c0.594,0.522,0.953,1.35,0.953,2.305c0,1.584-1.025,2.647-2.285,3.079v0.054c0.918,0.324,1.477,1.188,1.781,2.449
		c0.396,1.692,0.686,2.863,0.918,3.331h-1.619c-0.199-0.342-0.469-1.386-0.793-2.899c-0.359-1.674-1.025-2.305-2.449-2.359h-1.477
		v5.258h-1.566V232.737z M124.619,238.246h1.604c1.674,0,2.736-0.918,2.736-2.305c0-1.566-1.135-2.251-2.791-2.251
		c-0.756,0-1.277,0.072-1.549,0.144V238.246z"/>
	<path class="st3" d="M140.19,240.875l-1.26,3.817h-1.621l4.123-12.136h1.891l4.143,12.136h-1.676l-1.295-3.817H140.19z
		 M144.17,239.651l-1.207-3.493c-0.252-0.792-0.432-1.512-0.613-2.214h-0.053c-0.162,0.702-0.361,1.458-0.594,2.196l-1.19,3.511
		H144.17z"/>
	<path class="st3" d="M154.625,232.719c0.973-0.144,2.107-0.252,3.35-0.252c2.25,0,3.854,0.504,4.916,1.494
		c1.098,0.991,1.728,2.413,1.728,4.376c0,1.98-0.631,3.601-1.748,4.717c-1.152,1.135-3.023,1.747-5.383,1.747
		c-1.135,0-2.053-0.036-2.863-0.144V232.719z M156.209,243.468c0.396,0.072,0.973,0.072,1.586,0.072
		c3.348,0.018,5.166-1.873,5.166-5.149c0.02-2.899-1.602-4.682-4.914-4.682c-0.811,0-1.424,0.072-1.838,0.162V243.468z"/>
</g>
</svg>
